<svg viewBox="0 0 40 40" fill="none" xmlns="http://www.w3.org/2000/svg">
  <defs>
    <linearGradient id="shell-dark" x1="6" y1="6" x2="34" y2="34" gradientUnits="userSpaceOnUse">
      <stop stop-color="#1e3a5f"/>
      <stop offset="1" stop-color="#2d4a6f"/>
    </linearGradient>
    <linearGradient id="hub-dark" x1="17" y1="17" x2="23" y2="23" gradientUnits="userSpaceOnUse">
      <stop stop-color="#34d399"/>
      <stop offset="1" stop-color="#6ee7b7"/>
    </linearGradient>
  </defs>
  <rect x="3" y="3" width="34" height="34" rx="9" fill="url(#shell-dark)"/>
  <rect x="6.5" y="6.5" width="27" height="27" rx="6.5" stroke="white" stroke-opacity="0.12" stroke-width="1"/>
  <path d="M12 12L20 20M28 12L20 20M12 28L20 20M28 28L20 20" stroke="white" stroke-opacity="0.38" stroke-width="1.25" stroke-linecap="round"/>
  <circle cx="12" cy="12" r="2.2" fill="white" fill-opacity="0.95"/>
  <circle cx="28" cy="12" r="2.2" fill="white" fill-opacity="0.95"/>
  <circle cx="12" cy="28" r="2.2" fill="white" fill-opacity="0.95"/>
  <circle cx="28" cy="28" r="2.2" fill="white" fill-opacity="0.95"/>
  <path d="M12 8.8C14.2 8.8 16 10.6 16 12.8M12 6.6C15.4 6.6 18.2 9.4 18.2 12.8" stroke="#6ee7b7" stroke-opacity="0.9" stroke-width="1.1" stroke-linecap="round"/>
  <circle cx="20" cy="20" r="5.2" fill="url(#hub-dark)"/>
  <circle cx="20" cy="20" r="2.4" fill="white" fill-opacity="0.98"/>
  <circle cx="20" cy="20" r="1.1" fill="#0b1d3a"/>
  <circle cx="20" cy="20" r="7.4" stroke="#6ee7b7" stroke-opacity="0.28" stroke-width="1"/>
</svg>
